<?xml version="1.0" encoding="UTF-8"?>
<!DOCTYPE svg PUBLIC "-//W3C//DTD SVG 1.1//EN" "http://www.w3.org/Graphics/SVG/1.1/DTD/svg11.dtd">
<!-- Creator: CorelDRAW 2017 -->
<svg xmlns="http://www.w3.org/2000/svg" xml:space="preserve" width="9.5759mm" height="18.6764mm" version="1.1" style="shape-rendering:geometricPrecision; text-rendering:geometricPrecision; image-rendering:optimizeQuality; fill-rule:evenodd; clip-rule:evenodd"
viewBox="0 0 1314 2563"
 xmlns:xlink="http://www.w3.org/1999/xlink">
 <defs>
  <style type="text/css">
   <![CDATA[
    .str0 {stroke:white;stroke-width:55;stroke-linecap:round;stroke-linejoin:round;stroke-miterlimit:22.9256}
    .fil0 {fill:none}
   ]]>
  </style>
 </defs>
 <g id="Layer_x0020_1">
  <metadata id="CorelCorpID_0Corel-Layer"/>
  <path class="fil0 str0" d="M856 1308c250,83 431,319 431,598 0,348 -282,630 -630,630 -348,0 -630,-282 -630,-630 0,-278 181,-514 431,-598l0 -476 -10 0c-31,0 -56,-25 -56,-56l0 0c0,-31 25,-56 56,-56l10 0 398 0 10 0c31,0 56,25 56,56l0 0c0,31 -25,56 -56,56l-10 0 0 476z"/>
  <path class="fil0 str0" d="M335 1605c51,-128 142,-214 281,-270l0 -538m167 1639c-321,12 -562,-316 -481,-718"/>
  <path class="fil0 str0" d="M638 2149c28,0 50,23 50,50 0,28 -23,50 -50,50 -28,0 -50,-23 -50,-50 0,-28 23,-50 50,-50z"/>
  <path class="fil0 str0" d="M1028 2081c23,0 42,19 42,42 0,23 -19,42 -42,42 -23,0 -42,-19 -42,-42 0,-23 19,-42 42,-42z"/>
  <path class="fil0 str0" d="M872 2236c28,0 50,22 50,50 0,28 -22,50 -50,50 -28,0 -50,-22 -50,-50 0,-28 23,-50 50,-50z"/>
  <path class="fil0 str0" d="M199 1961c-85,-14 -136,-32 -136,-52 0,-45 266,-82 595,-82 329,0 595,37 595,82 0,45 -266,82 -595,82 -97,0 -189,-3 -270,-9"/>
  <path class="fil0 str0" d="M1095 27c94,0 171,53 171,118 0,55 -54,100 -126,114 15,21 23,45 23,70 0,90 -105,163 -235,163 -21,0 -41,-2 -60,-5 4,7 6,15 6,24 0,41 -48,73 -106,73 -59,0 -106,-33 -106,-73 0,-37 40,-68 92,-73 -37,-29 -60,-67 -60,-108 0,-90 105,-162 235,-163 -2,-7 -3,-14 -3,-22 0,-65 76,-118 171,-118z"/>
  <path class="fil0 str0" d="M463 1810c0,-57 47,-104 104,-104 57,0 104,47 104,104"/>
  <path class="fil0 str0" d="M898 1591c35,0 64,28 64,64 0,35 -28,64 -64,64 -35,0 -64,-28 -64,-64 0,-35 28,-64 64,-64z"/>
  <path class="fil0 str0" d="M696 1449c28,0 51,23 51,51 0,28 -23,51 -51,51 -28,0 -51,-23 -51,-51 0,-28 23,-51 51,-51z"/>
 </g>
</svg>
