<?xml version="1.0" encoding="UTF-8"?>
<!DOCTYPE svg PUBLIC "-//W3C//DTD SVG 1.1//EN" "http://www.w3.org/Graphics/SVG/1.1/DTD/svg11.dtd">
<!-- Creator: CorelDRAW 2017 -->
<svg xmlns="http://www.w3.org/2000/svg" xml:space="preserve" width="11.4648mm" height="23.0226mm" version="1.1" style="shape-rendering:geometricPrecision; text-rendering:geometricPrecision; image-rendering:optimizeQuality; fill-rule:evenodd; clip-rule:evenodd"
viewBox="0 0 2593 5206"
 xmlns:xlink="http://www.w3.org/1999/xlink">
 <defs>
  <style type="text/css">
   <![CDATA[
    .str0 {stroke:white;stroke-width:90;stroke-linecap:round;stroke-linejoin:round;stroke-miterlimit:22.9256}
    .fil2 {fill:none}
    .fil0 {fill:none;fill-rule:nonzero}
    .fil1 {fill:white;fill-rule:nonzero;fill-opacity:0.501961}
   ]]>
  </style>
 </defs>
 <g id="Layer_x0020_1">
  <metadata id="CorelCorpID_0Corel-Layer"/>
  <path class="fil0 str0" d="M45 5161c840,-1076 1078,-2665 1078,-4003"/>
  <path class="fil0 str0" d="M2547 5161c-840,-1076 -1078,-2665 -1078,-4003"/>
  <path class="fil0 str0" d="M630 5161c153,-280 280,-571 386,-868"/>
  <path class="fil0 str0" d="M1962 5161c-153,-280 -280,-571 -386,-868"/>
  <path class="fil0 str0" d="M1405 3343l171 950m-389 -950l-171 950"/>
  <line class="fil0 str0" x1="1302" y1="662" x2="1303" y2= "45" />
  <line class="fil0 str0" x1="507" y1="4282" x2="2098" y2= "4283" />
  <line class="fil0 str0" x1="824" y1="3332" x2="1781" y2= "3334" />
  <line class="fil0 str0" x1="1046" y1="991" x2="1558" y2= "993" />
  <line class="fil0 str0" x1="619" y1="5154" x2="573" y2= "4281" />
  <line class="fil0 str0" x1="1966" y1="5154" x2="2012" y2= "4281" />
  <line class="fil0 str0" x1="53" y1="5154" x2="995" y2= "4299" />
  <line class="fil0 str0" x1="2533" y1="5154" x2="1590" y2= "4299" />
  <polyline class="fil0 str0" points="1293,3306 1059,2877 1484,2261 1120,1725 1459,1150 "/>
  <polyline class="fil0 str0" points="1302,3306 1535,2877 1110,2261 1474,1725 1135,1150 "/>
  <path class="fil1" d="M1577 2718c0,3 1,6 1,9 0,-3 0,-6 -1,-9z"/>
  <path class="fil1" d="M1546 2315c0,1 0,2 0,3 0,-1 0,-2 0,-3z"/>
  <path class="fil2 str0" d="M635 5161c138,-290 392,-469 668,-469 275,0 530,179 668,469"/>
  <line class="fil2 str0" x1="818" y1="4797" x2="1590" y2= "4346" />
  <line class="fil2 str0" x1="994" y1="4292" x2="872" y2= "3354" />
  <line class="fil2 str0" x1="1591" y1="4292" x2="1713" y2= "3354" />
  <line class="fil2 str0" x1="602" y1="4247" x2="1179" y2= "3365" />
  <line class="fil2 str0" x1="1984" y1="4247" x2="1406" y2= "3365" />
  <line class="fil2 str0" x1="1777" y1="4797" x2="1005" y2= "4346" />
  <path class="fil2 str0" d="M1008 860c61,-109 173,-175 294,-175 121,0 233,67 294,175"/>
 </g>
</svg>
