<?xml version="1.0" encoding="UTF-8"?>
<!DOCTYPE svg PUBLIC "-//W3C//DTD SVG 1.1//EN" "http://www.w3.org/Graphics/SVG/1.1/DTD/svg11.dtd">
<!-- Creator: CorelDRAW 2017 -->
<svg xmlns="http://www.w3.org/2000/svg" xml:space="preserve" width="18.4175mm" height="21.4612mm" version="1.1" style="shape-rendering:geometricPrecision; text-rendering:geometricPrecision; image-rendering:optimizeQuality; fill-rule:evenodd; clip-rule:evenodd"
viewBox="0 0 5233 6098"
 xmlns:xlink="http://www.w3.org/1999/xlink">
 <defs>
  <style type="text/css">
   <![CDATA[
    .str1 {stroke:white;stroke-width:114;stroke-linecap:round;stroke-linejoin:round;stroke-miterlimit:22.9256}
    .str0 {stroke:white;stroke-width:114;stroke-linecap:round;stroke-linejoin:round;stroke-miterlimit:22.9256;stroke-dasharray:113.652667 340.958002}
    .fil0 {fill:none}
    .fil1 {fill:white;fill-rule:nonzero}
   ]]>
  </style>
 </defs>
 <g id="Layer_x0020_1">
  <metadata id="CorelCorpID_0Corel-Layer"/>
  <path class="fil0 str0" d="M805 4427c-463,-463 -750,-1103 -750,-1810 0,-1414 1146,-2560 2560,-2560 1414,0 2560,1146 2560,2560 0,707 -287,1347 -750,1810"/>
  <path class="fil0 str1" d="M3096 5504c-33,301 -289,537 -599,537l0 0c-201,0 -380,-100 -490,-253"/>
  <path class="fil0 str1" d="M3208 4637c-3,-325 14,-403 394,-324 474,94 331,-322 377,-362 142,-63 108,-163 64,-200 149,-42 46,-120 70,-190 238,-82 278,-168 107,-357 -125,-137 -252,-305 -225,-520 140,-258 150,-446 -35,-736 910,-988 -2363,-1785 -2520,-406 -1106,110 -234,2302 318,2485"/>
  <rect class="fil0 str1" x="1648" y="4636" width="1699" height="868" rx="181" ry="162"/>
  <line class="fil0 str1" x1="1589" y1="5146" x2="3405" y2= "5146" />
  <line class="fil0 str1" x1="1589" y1="4915" x2="3405" y2= "4915" />
  <path class="fil1" d="M2065 2179c0,8 -1,14 -4,22 -1,3 -3,6 -4,8l-6 7c-2,2 -5,4 -8,5l-1 1c-6,3 -11,4 -17,4 -45,0 -176,8 -212,-1 -3,-1 -5,-2 -8,-3 -3,-2 -6,-4 -9,-7 -2,-2 -4,-4 -5,-7l-4 -7 -2 -7c-1,-7 -1,-10 -2,-16 0,-6 1,-11 2,-16 1,-4 2,-7 4,-11 2,-3 4,-6 6,-9 2,-3 5,-5 7,-7 3,-2 6,-3 9,-4l1 0c3,-1 6,-1 10,-1l52 0 0 -217c-14,8 -27,17 -41,24 -3,1 -6,2 -9,3 -5,1 -9,1 -14,0 -6,-1 -11,-4 -16,-9 -4,-3 -6,-7 -8,-12 -2,-3 -3,-7 -3,-11 -2,-17 -2,-32 5,-47 1,-3 3,-5 5,-7 37,-37 108,-89 168,-69 3,1 5,3 8,4l1 0c4,3 7,6 9,9 2,3 3,6 4,9 11,86 1,229 1,321l42 0c3,0 6,0 10,1 4,1 8,3 11,5 2,2 5,4 7,6l0 1c2,2 3,4 5,7 5,12 7,17 7,31zm1210 351l466 0c27,0 49,22 49,49l0 0c0,27 -22,49 -49,49l-439 0c-22,99 -74,247 -95,320 -4,16 -16,26 -33,30 -7,2 -16,3 -25,3 -9,0 -18,-1 -25,-3 -18,-4 -32,-14 -37,-30l-69 -212 -11 0c-22,0 -34,-15 -38,-35 -1,-5 -2,-10 -2,-15 0,-5 1,-10 2,-15 4,-20 17,-35 38,-35l57 0c5,0 9,0 13,1 5,1 9,3 13,5 5,3 8,6 12,10 3,4 6,9 7,13l36 123 57 -229c6,-21 28,-30 50,-31 5,0 11,0 16,0l1 0c2,0 4,0 5,0zm381 485l4 8c2,4 2,9 2,13 0,6 -2,12 -5,18 -3,4 -6,8 -10,10l-2 1c-3,2 -6,3 -10,4l-9 2c-21,2 -39,3 -58,-6 -3,-2 -6,-4 -8,-6 -18,-21 -33,-52 -47,-76 -15,24 -29,55 -47,76 -2,2 -5,4 -8,6 -19,8 -36,8 -57,6l-9 -2c-4,-1 -8,-3 -11,-5l0 0c-4,-3 -8,-7 -11,-12 -3,-5 -4,-11 -4,-17 0,-4 1,-8 3,-12 21,-41 53,-85 79,-125 -23,-36 -57,-83 -74,-121 -1,-4 -2,-7 -2,-11 0,-7 1,-13 4,-18 3,-4 6,-8 10,-11 3,-2 8,-4 12,-6 3,-1 7,-2 10,-2 14,-2 33,-1 47,2 8,2 13,5 18,10 17,20 30,48 44,70 38,-61 36,-86 106,-82l9 2c4,1 7,3 10,4l1 0c5,3 9,8 12,13l0 1c3,6 4,12 3,18 0,3 -1,7 -3,10 -1,3 -3,6 -4,8l-70 111 74 119zm-732 -850c0,10 -1,20 -5,29 -1,3 -3,6 -5,8 -2,3 -5,5 -7,7l0 0c-3,2 -6,3 -10,5l-1 0c-3,1 -6,1 -9,1l-26 0 0 418c0,3 -1,7 -1,10 -1,4 -3,7 -5,10l-1 1c-2,3 -5,6 -8,8l0 0c-3,2 -5,3 -8,4 -13,5 -21,3 -32,5 -6,0 -12,0 -16,-1 -5,-1 -11,-2 -16,-4 -3,-1 -6,-3 -9,-5 -3,-2 -6,-5 -8,-8l-1 -1c-2,-3 -3,-7 -4,-11l-1 -8 0 -418 -126 0 0 418c0,3 -1,7 -1,10l0 1c-1,3 -3,7 -5,10 -2,3 -5,5 -8,8 -3,2 -5,4 -8,5 -14,6 -21,2 -32,5 -6,0 -12,0 -16,-1 -5,-1 -11,-2 -15,-4 -3,-1 -6,-3 -9,-5 -3,-2 -6,-5 -8,-8 -3,-4 -4,-8 -5,-12l-1 -8 0 -418 -28 0c-3,0 -7,-1 -10,-1l-1 0c-3,-1 -6,-3 -9,-4 -3,-2 -6,-4 -8,-7 -2,-2 -4,-5 -5,-8 -8,-16 -7,-42 0,-58 1,-3 3,-5 5,-8 3,-3 5,-6 9,-8 3,-2 6,-3 9,-4l1 0c3,-1 6,-1 10,-1l398 0c3,0 6,0 9,1l1 0c4,1 7,3 10,5l0 0c3,2 6,5 8,8 2,3 3,5 5,8 4,11 5,18 5,30zm-551 697c0,5 0,10 -1,14l-2 8 -4 9c-2,3 -3,5 -5,7l-1 0c-3,3 -5,5 -8,7 -3,1 -6,3 -9,4 -3,1 -6,1 -10,1l-256 0c-6,0 -12,-1 -17,-3 -6,-2 -11,-6 -16,-10 -5,-5 -8,-11 -11,-18 -2,-6 -3,-11 -3,-18 0,-12 0,-21 1,-32 16,-56 127,-165 158,-202 -56,-69 -151,-136 -151,-227 0,-6 1,-12 3,-17 2,-6 6,-12 10,-16l0 0c4,-4 9,-8 15,-10 6,-2 11,-3 18,-3l239 0c3,0 6,0 10,1l1 0c4,1 7,3 10,5l1 1c3,2 5,4 7,6 12,14 12,42 8,59 -1,3 -2,6 -3,9 -1,3 -3,5 -5,7 -2,3 -5,5 -7,7 -4,2 -7,4 -10,5 -4,1 -7,2 -10,2l-144 0 116 141c3,4 6,9 8,13 2,5 3,11 3,16 0,6 -1,12 -3,17 -2,5 -5,9 -8,14l-127 153 163 0c3,0 6,0 10,1 4,1 7,3 11,5 2,2 5,4 7,6 5,5 7,11 9,17 2,9 1,15 3,22zm-459 -62c0,16 -1,31 -2,45 -1,14 -3,28 -6,42 -3,14 -6,27 -11,39 -5,12 -10,24 -16,34 -7,11 -15,21 -23,29 -9,8 -19,16 -30,22 -11,6 -23,11 -37,14 -13,3 -27,4 -42,4 -14,0 -27,-1 -39,-4 -13,-3 -25,-7 -35,-12 -11,-6 -20,-13 -29,-21 -8,-8 -16,-17 -22,-28 -6,-10 -11,-21 -16,-34 -4,-12 -8,-25 -10,-38 -2,-13 -4,-27 -5,-43 -1,-15 -2,-31 -2,-47 0,-16 1,-31 2,-45 1,-14 3,-28 6,-42 3,-14 6,-27 11,-39 4,-12 10,-24 16,-34 7,-11 14,-21 23,-29 9,-9 19,-16 30,-22 11,-6 24,-11 37,-14 13,-3 27,-4 42,-4 14,0 27,1 40,4 13,3 25,7 35,12 11,6 21,13 29,21 8,8 16,17 22,28 6,10 11,21 16,34 4,12 8,25 10,38 2,13 4,27 5,42 1,15 2,31 2,47zm-110 4l0 -26 -2 -24 -2 -20 -3 -17 -4 -14 -4 -10 -5 -8c-4,-5 -4,-5 -9,-9l-5 -2 -8 -2 -10 -1c-6,0 -11,1 -15,2 -3,1 -7,3 -9,4 -3,2 -6,5 -9,9 -3,4 -5,8 -7,13 -2,6 -4,12 -6,18 -2,7 -3,15 -4,23 -1,9 -2,18 -2,27l-1 30c0,14 0,27 1,38 1,12 2,22 3,32 1,9 3,17 5,24 2,7 4,13 6,17 2,4 5,8 7,10 2,2 4,4 7,5 3,2 6,3 9,4 4,1 8,1 13,1 4,0 8,0 11,-1 3,-1 6,-1 8,-2 2,-1 4,-2 7,-4 2,-1 4,-3 5,-5l5 -7 5 -9 4 -12 4 -14 3 -16 2 -17 1 -19 0 -20zm1520 632c0,16 -1,31 -2,45 -1,14 -3,28 -6,42 -3,14 -6,27 -11,39 -4,12 -10,24 -16,34 -7,11 -15,21 -23,29 -9,9 -19,16 -30,22 -11,6 -23,11 -37,14 -13,3 -27,4 -42,4 -14,0 -27,-1 -39,-4 -13,-3 -25,-7 -35,-12 -11,-6 -20,-13 -29,-21 -9,-8 -16,-18 -22,-28 -6,-10 -11,-21 -15,-34 -4,-12 -7,-25 -10,-38 -2,-13 -4,-27 -5,-43 -1,-15 -2,-31 -2,-47 0,-15 1,-30 2,-45 1,-14 3,-28 6,-42 3,-14 6,-27 11,-39 4,-12 10,-24 16,-34 7,-11 14,-21 23,-29 9,-9 19,-16 30,-22 11,-6 24,-11 37,-14 13,-3 27,-4 42,-4 14,0 27,1 40,4 13,3 25,7 35,12 11,6 21,13 29,21 8,8 16,17 22,28 6,10 11,21 16,34 4,12 8,25 10,38 2,13 4,27 5,43 1,15 2,31 2,47zm-110 4l0 -26 -2 -23c0,-6 -1,-13 -2,-20 -1,-5 -2,-11 -3,-17l-4 -14 -4 -10 -5 -8c-4,-5 -4,-5 -9,-9l-5 -2 -8 -2 -10 -1c-6,0 -11,1 -15,2 -3,1 -7,3 -9,4 -3,2 -6,5 -9,9 -3,4 -5,8 -7,13 -2,6 -4,12 -6,18 -2,7 -3,15 -4,23 -1,9 -2,18 -2,28l-1 30c0,14 0,27 1,38 1,11 2,22 3,31 1,9 3,17 5,24 2,7 4,13 7,17 2,4 5,8 7,10 2,2 4,4 7,5l0 0c2,1 6,3 9,3 4,1 8,1 13,1 4,0 8,0 11,-1 3,0 5,-1 8,-2 2,-1 4,-2 7,-4l5 -4 6 -7 5 -9 4 -12 4 -14 3 -15 2 -18 1 -19 0 -20zm-968 -81c0,16 -1,31 -2,45 -1,14 -3,28 -6,42 -3,14 -6,27 -11,39 -5,12 -10,24 -16,34 -7,11 -15,21 -24,29 -9,8 -19,16 -30,22 -11,6 -23,11 -37,14 -13,3 -27,4 -42,4 -14,0 -27,-1 -39,-4 -13,-3 -24,-7 -35,-12 -11,-5 -20,-12 -29,-21 -8,-8 -16,-17 -22,-28 -6,-10 -11,-21 -16,-34 -4,-12 -7,-25 -10,-38 -2,-13 -4,-27 -5,-43 -1,-15 -2,-31 -2,-47 0,-16 1,-31 2,-45 1,-14 3,-28 6,-42 3,-14 6,-27 11,-39 4,-12 10,-24 16,-34 7,-11 14,-21 23,-29 9,-9 19,-16 30,-22 11,-6 24,-11 37,-14 13,-3 27,-4 42,-4 14,0 27,1 40,4 13,3 25,7 35,12 11,6 21,13 29,21 8,8 16,17 22,28 6,10 11,21 16,34 4,12 8,25 10,39 2,13 4,27 5,42 1,15 2,31 2,47zm-110 4l0 -26 -2 -24 -2 -20 -3 -17c-1,-5 -2,-9 -4,-14 -1,-3 -3,-7 -4,-10 -1,-3 -3,-5 -5,-8 -4,-5 -4,-5 -9,-9l-5 -2 -8 -2 -10 -1c-6,0 -11,1 -15,2 -4,1 -7,2 -9,4 -3,2 -6,5 -9,9 -3,4 -5,8 -7,13 -2,6 -4,12 -6,18 -2,7 -3,15 -4,23l-2 27 -1 30c0,14 0,27 1,38 1,12 2,22 3,32 1,9 3,17 5,24 2,7 4,13 6,17 2,4 5,8 7,10 2,2 4,4 7,5 3,2 6,3 9,4 4,1 8,1 13,1 4,0 8,0 11,-1 3,0 5,-1 8,-2 2,-1 4,-2 7,-3 2,-1 3,-3 5,-5l6 -7 5 -9 4 -12 4 -14 3 -16 2 -17 1 -19 0 -20zm604 -1691c0,16 -1,31 -2,45 -1,14 -3,28 -6,42 -3,14 -6,27 -11,39 -5,12 -10,24 -16,34 -7,11 -15,21 -23,29 -9,9 -19,16 -30,22 -11,6 -23,11 -37,14 -13,3 -27,4 -42,4 -14,0 -27,-1 -39,-4 -13,-3 -25,-7 -35,-12 -11,-6 -20,-13 -29,-21 -8,-8 -16,-17 -22,-28 -6,-10 -11,-21 -16,-34 -4,-12 -7,-25 -10,-38 -2,-13 -4,-27 -5,-43 -1,-15 -2,-31 -2,-47 0,-16 1,-31 2,-45 1,-14 3,-28 6,-42 3,-14 6,-27 11,-39 4,-12 10,-24 16,-34 7,-11 14,-21 23,-29 9,-9 19,-16 30,-22 11,-6 24,-11 37,-14 13,-3 27,-4 42,-4 14,0 27,1 40,4 13,3 25,7 35,12 11,6 21,13 29,21 8,8 16,17 22,28 6,10 11,21 16,34 4,12 8,25 10,39 2,13 4,27 5,42 1,15 2,31 2,47zm-110 4l0 -26 -2 -23 -2 -20 -3 -17c-1,-5 -2,-9 -4,-14 -1,-3 -3,-7 -4,-10l-5 -8c-4,-5 -4,-5 -9,-9l-5 -2 -8 -2 -10 -1c-6,0 -11,1 -15,2 -3,1 -7,3 -9,4 -3,2 -6,5 -9,9 -3,4 -5,8 -7,13 -2,6 -4,12 -6,18 -2,7 -3,15 -4,23l-2 28 -1 29c0,14 0,27 1,38 1,12 2,22 3,32 1,9 3,17 5,24 2,7 4,13 6,17 2,4 4,8 7,10 2,2 4,4 7,5 3,2 6,3 9,4 4,1 8,1 13,1 4,0 8,0 11,-1 3,0 5,-1 8,-2 2,-1 4,-2 7,-3 2,-1 3,-3 5,-5l6 -7 5 -9 4 -12 4 -14 3 -15 2 -18 1 -19 0 -20zm160 1726c0,9 -1,13 -4,22 -1,3 -3,6 -4,8l-5 6c-2,2 -5,5 -9,6 -6,3 -11,4 -17,4l-202 0c-3,0 -6,0 -9,-1l-1 0c-3,-1 -6,-2 -8,-3l-1 -1c-3,-2 -5,-4 -7,-5l-5 -6c-2,-3 -3,-5 -4,-8l-2 -8c-1,-6 -1,-10 -2,-16 0,-6 1,-11 2,-16 1,-5 3,-9 5,-13 1,-3 3,-5 4,-7l0 0c2,-2 4,-4 6,-6l1 -1c3,-2 6,-4 10,-5l1 0c3,-1 6,-1 10,-1l52 0 0 -217c-14,8 -27,17 -41,24l-9 3c-5,1 -10,1 -15,0l-1 0c-5,-1 -10,-4 -15,-8 -4,-3 -6,-8 -8,-12 -2,-3 -3,-7 -3,-11 -7,-69 63,-109 126,-126 3,-1 7,-1 12,-1 15,0 26,-1 40,4 3,1 6,3 9,5 4,3 7,6 9,9 1,2 3,6 4,9 1,3 1,6 1,10l0 312 42 0c3,0 6,0 10,1 4,1 8,3 11,5 2,2 4,4 6,6l0 1c2,2 3,4 5,7 1,2 3,5 3,8 2,8 3,15 3,23zm589 -1120l-202 0c-21,0 -34,-15 -38,-34 -1,-5 -2,-10 -2,-14 0,-5 1,-10 2,-14 4,-20 17,-35 38,-35l52 0 0 -217c-14,8 -27,17 -41,23 -3,1 -7,2 -10,3 -11,2 -21,-2 -29,-9 -6,-6 -10,-13 -12,-22 -1,-6 -2,-13 -2,-19 1,-16 8,-34 22,-43 20,-13 77,-57 101,-63 7,-2 24,-4 37,-3 15,1 30,6 37,19l1 1c6,10 5,222 4,317l0 13 42 0c21,0 34,15 38,35 1,5 2,10 2,14 0,5 -1,10 -2,14 -4,19 -17,35 -38,35z"/>
 </g>
</svg>
