<?xml version="1.0" encoding="UTF-8"?>
<!DOCTYPE svg PUBLIC "-//W3C//DTD SVG 1.1//EN" "http://www.w3.org/Graphics/SVG/1.1/DTD/svg11.dtd">
<!-- Creator: CorelDRAW 2017 -->
<svg xmlns="http://www.w3.org/2000/svg" xml:space="preserve" width="18.7722mm" height="18.6205mm" version="1.1" style="shape-rendering:geometricPrecision; text-rendering:geometricPrecision; image-rendering:optimizeQuality; fill-rule:evenodd; clip-rule:evenodd"
viewBox="0 0 4916 4876"
 xmlns:xlink="http://www.w3.org/1999/xlink">
 <defs>
  <style type="text/css">
   <![CDATA[
    .str0 {stroke:#FEFEFE;stroke-width:105;stroke-linecap:round;stroke-linejoin:round;stroke-miterlimit:22.9256}
    .fil0 {fill:none}
    .fil1 {fill:none;fill-rule:nonzero}
   ]]>
  </style>
 </defs>
 <g id="Layer_x0020_1">
  <metadata id="CorelCorpID_0Corel-Layer"/>
  <path class="fil0 str0" d="M4670 1057c106,0 193,87 193,193l0 2993c0,103 -82,188 -184,193m-472 0l-1474 0c-45,108 -151,184 -275,184 -124,0 -230,-76 -275,-184l-1937 0c-106,0 -193,-87 -193,-193l0 -2993c0,-106 87,-193 193,-193"/>
  <path class="fil0 str0" d="M4662 1266l0 2931 -223 0m-471 0l-1526 0 -2220 0 0 -2931"/>
  <path class="fil0 str0" d="M391 1127c684,-357 1367,-329 2051,39l0 2931c-684,-368 -1367,-396 -2051,-39l0 -2931z"/>
  <path class="fil0 str0" d="M3704 3129c-242,92 -484,225 -701,388"/>
  <path class="fil0 str0" d="M2548 3960l-106 137 0 -2931c440,-723 1324,-1110 1985,-1114l0 2931c-42,0 -85,2 -128,6"/>
  <path class="fil0 str0" d="M2638 1302c379,-440 929,-714 1428,-809"/>
  <path class="fil0 str0" d="M2638 1671c379,-440 929,-714 1428,-809"/>
  <path class="fil0 str0" d="M2638 2041c379,-440 929,-714 1428,-809"/>
  <path class="fil0 str0" d="M2638 2410c379,-440 929,-714 1428,-809"/>
  <path class="fil1 str0" d="M665 1476c243,-83 486,-125 731,-125 241,0 482,40 722,122m-1452 1179c243,-83 486,-125 731,-125 241,0 482,40 722,122m-1452 -389c243,-83 486,-125 731,-125 241,0 482,40 722,122m-1452 -389c243,-83 486,-125 731,-125 241,0 482,40 722,122"/>
  <path class="fil0 str0" d="M2495 3339c0,118 22,228 67,332 45,104 105,194 182,272 76,77 166,138 270,183 104,45 215,67 332,67 91,0 178,-13 261,-41 83,-27 159,-66 229,-115l140 141 209 -209 -141 -140c49,-70 87,-147 115,-229 27,-83 41,-169 41,-261 0,-118 -22,-228 -67,-332 -45,-104 -106,-194 -183,-271 -77,-77 -168,-138 -271,-183 -104,-45 -214,-67 -332,-67 -118,0 -228,22 -332,67 -104,45 -194,106 -270,183 -76,77 -137,168 -182,271 -45,104 -67,215 -67,332zm250 0l0 0c0,-83 16,-161 47,-235 32,-74 75,-138 129,-192 54,-55 118,-98 191,-129 73,-32 151,-47 236,-47 83,0 160,16 233,47 73,32 137,75 191,129 54,54 98,119 129,192 32,74 47,152 47,235 0,84 -16,163 -47,236 -32,73 -75,137 -129,191 -54,54 -118,97 -191,129 -73,32 -151,48 -233,48 -84,0 -163,-16 -236,-48 -73,-32 -137,-75 -191,-129 -54,-54 -98,-118 -129,-191 -32,-73 -47,-151 -47,-236z"/>
  <path class="fil0 str0" d="M3963 4192l630 632c115,-27 213,-121 237,-237l-632 -630 -235 235z"/>
 </g>
</svg>
