<?xml version="1.0" encoding="UTF-8"?>
<!DOCTYPE svg PUBLIC "-//W3C//DTD SVG 1.1//EN" "http://www.w3.org/Graphics/SVG/1.1/DTD/svg11.dtd">
<!-- Creator: CorelDRAW 2017 -->
<svg xmlns="http://www.w3.org/2000/svg" xml:space="preserve" width="15.3278mm" height="16.1491mm" version="1.1" style="shape-rendering:geometricPrecision; text-rendering:geometricPrecision; image-rendering:optimizeQuality; fill-rule:evenodd; clip-rule:evenodd"
viewBox="0 0 4002 4217"
 xmlns:xlink="http://www.w3.org/1999/xlink">
 <defs>
  <style type="text/css">
   <![CDATA[
    .str0 {stroke:white;stroke-width:104;stroke-linecap:round;stroke-linejoin:round;stroke-miterlimit:22.9256}
    .fil0 {fill:none}
   ]]>
  </style>
 </defs>
 <g id="Layer_x0020_1">
  <metadata id="CorelCorpID_0Corel-Layer"/>
  <path class="fil0 str0" d="M2257 77c-55,-16 -111,-24 -168,-24l0 0c-604,0 -1089,921 -1089,2056 0,1135 486,2056 1089,2056 598,0 1084,-921 1084,-2056 0,-689 -179,-1298 -453,-1671"/>
  <path class="fil0 str0" d="M3715 3318c60,-49 111,-109 153,-181 302,-523 -253,-1404 -1236,-1971 -983,-568 -2024,-607 -2325,-85 -299,518 255,1399 1238,1967 332,192 1005,462 1560,456"/>
  <path class="fil0 str0" d="M2087 2448c-188,0 -340,-152 -340,-340 0,-188 152,-340 340,-340 188,0 340,152 340,340 0,95 -39,181 -102,243"/>
  <path class="fil0 str0" d="M3303 3282c110,0 199,89 199,199 0,110 -89,199 -199,199 -110,0 -199,-89 -199,-199 0,-110 89,-199 199,-199z"/>
  <path class="fil0 str0" d="M2580 97c110,0 199,89 199,199 0,110 -89,199 -199,199 -110,0 -199,-89 -199,-199 0,-110 89,-199 199,-199z"/>
  <path class="fil0 str0" d="M332 2360c253,-512 863,-993 1212,-1195 983,-568 2024,-607 2325,-85 299,518 -255,1399 -1238,1967 -983,568 -2024,607 -2323,89 -31,-54 -53,-109 -68,-165"/>
  <path class="fil0 str0" d="M251 2343c110,0 199,89 199,199 0,110 -89,199 -199,199 -110,0 -199,-89 -199,-199 0,-110 89,-199 199,-199z"/>
 </g>
</svg>
